<?xml version="1.0" encoding="utf-8"?>
<!-- Generator: Adobe Illustrator 23.0.3, SVG Export Plug-In . SVG Version: 6.00 Build 0)  -->
<svg version="1.1" id="Layer_1" xmlns="http://www.w3.org/2000/svg" xmlns:xlink="http://www.w3.org/1999/xlink" x="0px" y="0px"
	 viewBox="0 0 1125 281" style="enable-background:new 0 0 1125 281;" xml:space="preserve">
<style type="text/css">
	.st0{opacity:0.53;fill:#0053A3;}
	.st1{opacity:0.53;fill:url(#SVGID_1_);}
	.st2{opacity:0.53;fill:#3FA2DA;enable-background:new    ;}
	.st3{opacity:0.53;fill:none;stroke:#F6F6F6;stroke-width:0.8745;stroke-miterlimit:10;}
</style>
<path class="st0" d="M-0.9,110.5c225-68.7,403.7-53.9,555,21.5l106.5,53.4l77.3,37c132.4,49.1,264.9,16,397.8-149v204.1H-0.9V118.3"
	/>
<linearGradient id="SVGID_1_" gradientUnits="userSpaceOnUse" x1="-0.91" y1="170.115" x2="633.79" y2="170.115" gradientTransform="matrix(1 0 0 1 0 2)">
	<stop  offset="0" style="stop-color:#0085D3"/>
	<stop  offset="1" style="stop-color:#3FA2DA;stop-opacity:0.83"/>
	<stop  offset="1" style="stop-color:#0E8CD5;stop-opacity:0.2"/>
</linearGradient>
<path class="st1" d="M-0.9,66.6C149.3,246.4,368.7,262.2,633.8,172v105.6H-0.9V66.6z"/>
<path class="st2" d="M634,277.6V171.7C782.4,104,950.3,66,1135.7,115.3v162.4"/>
<path class="st3" d="M1140.3,99.2c-121.5,83.4-288.2,133.5-505.9,147"/>
<path class="st3" d="M1140.3,119c-110.4,78.6-272.1,130.1-484.6,137.5"/>
<path class="st3" d="M1140.3,136.2c-95.9,84.2-253.6,129.2-465.1,129.8"/>
<path class="st3" d="M1143,150.9c-118.3,93.2-282.5,136.2-417.3,129.2"/>
<path class="st3" d="M1143,170.7c-90.4,90.7-228,133.9-417.3,172.3"/>
<path class="st3" d="M1143,193.9c-146.9,132.7-356.5,93-417.3,172.3"/>
<path class="st3" d="M1140.3,161.2C1006.6,269.8,883.7,301.9,723,333.5"/>
<path class="st3" d="M725.9,279.8C657.2,63.7,547-81.2,286.9,57.5C169.4,155.1,55.2,150.4,1.8,116.8"/>
<path class="st3" d="M699.2,280.6C630.7,82.9,471.1,18.4,287.4,111.5C167.1,172.4,4.6,206.8-8.5,156.8"/>
<path class="st3" d="M684.8,277.6"/>
<path class="st3" d="M648.6,277.5"/>
<path class="st3" d="M709,279.8C639.2,55.4,476.5-17.8,289.4,87.9C166.9,157,1.3,196-12,139.3"/>
<path class="st3" d="M717,279.8C645.6,35.2,479.4-44.5,288.1,70.6C162.9,146-6.4,188.4-20,126.7"/>
<path class="st3" d="M675.3,266C610.3,92.5,459.1,35.9,285.1,117.6C171.2,171.1,17.3,201.2,4.9,157.4"/>
<path class="st3" d="M655.7,256.5C592.2,91.9,444.2,38.2,273.8,115.7C162.4,166.4,11.7,195-0.5,153.4"/>
<path class="st3" d="M634.4,246.2C572.2,46.8,427.4-18.2,260.8,75.7c-109.1,61.4-256.5,96-268.4,45.7"/>
</svg>
