<?xml version="1.0" encoding="utf-8"?>
<!-- Generator: Adobe Illustrator 23.0.3, SVG Export Plug-In . SVG Version: 6.00 Build 0)  -->
<svg version="1.1" id="Layer_1" xmlns="http://www.w3.org/2000/svg" xmlns:xlink="http://www.w3.org/1999/xlink" x="0px" y="0px"
	 viewBox="0 0 1280 271" style="enable-background:new 0 0 1280 271;" xml:space="preserve">
<style type="text/css">
	.st0{opacity:0.53;fill:#0053A3;}
	.st1{opacity:0.53;fill:url(#SVGID_1_);}
	.st2{opacity:0.53;fill:#3FA2DA;enable-background:new    ;}
	.st3{opacity:0.53;fill:none;stroke:#F6F6F6;stroke-width:1.8026;stroke-miterlimit:10;}
	.st4{opacity:0.53;}
	.st5{fill:none;stroke:#F6F6F6;stroke-width:1.8026;stroke-miterlimit:10;}
	.st6{opacity:0.53;fill:none;stroke:#F6F6F6;stroke-width:19.2392;stroke-miterlimit:10;stroke-dasharray:48.098,14.4294;}
	.st7{opacity:0.53;fill:none;stroke:#F6F6F6;stroke-width:0.9013;stroke-miterlimit:10;}
</style>
<path class="st0" d="M0.5,113.1c253.4-64.8,454.6-50.8,625,20.3l120,50.4l87,34.9c149.1,46.3,298.4,15.1,448-140.5v192.5H0.5V120.4"
	/>
<linearGradient id="SVGID_1_" gradientUnits="userSpaceOnUse" x1="0.5" y1="2381.1699" x2="715.3" y2="2381.1699" gradientTransform="matrix(1 0 0 1 0 -2210)">
	<stop  offset="0" style="stop-color:#0085D3"/>
	<stop  offset="1" style="stop-color:#3FA2DA;stop-opacity:0.83"/>
	<stop  offset="1" style="stop-color:#0E8CD5;stop-opacity:0.2"/>
</linearGradient>
<path class="st1" d="M0.5,71.7c169.2,169.5,416.3,184.5,714.8,99.4v99.6H0.5V71.7z"/>
<path class="st2" d="M715.5,270.7v-99.9c167.2-63.8,356.3-99.7,565-53.2v153.1"/>
<path class="st3" d="M1289,169.8"/>
<path class="st3" d="M9,138.8"/>
<g class="st4">
	<path class="st5" d="M1283,179.3"/>
</g>
<g class="st4">
	<path class="st5" d="M3,148.3"/>
</g>
<path class="st3" d="M1283,185.3"/>
<path class="st3" d="M3,154.3"/>
<path class="st6" d="M959,520"/>
<path class="st7" d="M1285.8,102.4C1148.9,181,961.2,228.3,716,241"/>
<path class="st7" d="M1285.8,121.1C1161.4,195.2,979.4,243.7,740,250.8"/>
<path class="st7" d="M1285.8,137.3c-108.1,79.4-285.5,121.9-523.8,122.4"/>
<path class="st7" d="M1288.8,151.1C1155.5,239,970.6,279.6,818.8,273"/>
<path class="st7" d="M1288.8,169.8c-101.8,85.6-256.8,126.3-470,162.5"/>
<path class="st7" d="M1288.8,191.7c-165.5,125.1-401.5,87.7-470,162.5"/>
<path class="st7" d="M1285.8,160.9c-150.7,102.5-289,132.7-470,162.5"/>
<path class="st7" d="M819,272.7C741.6,69,617.5-67.7,324.7,63.1c-132.4,92-261,87.6-321.2,55.9"/>
<path class="st7" d="M789,273.5C711.8,87,532,26.2,325.2,114C189.8,171.5,6.8,203.9-8,156.8"/>
<path class="st7" d="M3.5,206.4"/>
<path class="st7" d="M772.8,270.7"/>
<path class="st7" d="M0,227.1"/>
<path class="st7" d="M732,270.5"/>
<path class="st7" d="M800,272.7C721.4,61.1,538.2-7.9,327.4,91.7C189.5,156.9,3,193.7-12,140.2"/>
<path class="st7" d="M809,272.7C728.6,42.1,541.4-33.1,326,75.4c-141,71.1-331.6,111.1-347,52.9"/>
<path class="st7" d="M762,259.7c-73.1-163.7-243.4-217-439.4-140C194.3,170.2,21,198.6,7,157.3"/>
<path class="st7" d="M740,250.8C668.4,95.5,501.8,44.9,309.9,118C184.4,165.8,14.7,192.8,1,153.6"/>
<path class="st7" d="M716,241C646,53,482.9-8.3,295.2,80.2C172.4,138.2,6.4,170.8-7,123.3"/>
</svg>
